<svg xmlns="http://www.w3.org/2000/svg" viewBox="0 0 892.267 266.667" height="266.667" width="892.267" xml:space="preserve">
  <defs>
    <clipPath id="a" clipPathUnits="userSpaceOnUse">
      <path d="M72.5 99.516c0-27.422 22.23-49.651 49.652-49.651 27.423 0 49.653 22.229 49.653 49.651 0 27.422-22.23 49.652-49.653 49.652-27.422 0-49.652-22.23-49.652-49.652"/>
    </clipPath>
    <clipPath id="b" clipPathUnits="userSpaceOnUse">
      <path d="M0 200h669.2V0H0Z"/>
    </clipPath>
    <clipPath id="c" clipPathUnits="userSpaceOnUse">
      <path d="M282 48.452h80.442v133.547H282Z"/>
    </clipPath>
    <clipPath id="d" clipPathUnits="userSpaceOnUse">
      <path d="M0 200h669.2V0H0Z"/>
    </clipPath>
  </defs>
  <g clip-path="url(#a)" transform="matrix(1.33333 0 0 -1.33333 0 266.667)">
    <path style="fill:#3fa9f5;fill-opacity:1;fill-rule:nonzero;stroke:none" d="M0 0c-.567-4.108.85-6.234 0-8.216-.85-1.984-1.842-5.526-.992-7.933.85-2.409 2.125-7.65 3.258-7.792 1.133-.142-.849 5.666.283 3.825 1.134-1.842 1.134-4.582 3.118-6.47 1.982-1.888 4.674-1.605 6.799-3.446 2.125-1.843 4.249-4.534 6.233-4.251 0 0-.142-1.417-1.134-3.825-.991-2.407-1.133-5.24.143-6.94 1.274-1.701 2.549-4.251 3.683-5.526 1.133-1.274 1.983-8.074 1.699-11.473-.283-3.401 1.275-11.05 4.816-12.75 3.542-1.701 0 .849-.707 2.974-.709 2.125.547 7.083 2.258 7.792 1.708.709 3.267 3.541 4.541 5.526 1.275 1.982 4.533 2.833 5.525 5.24.992 2.408.567 5.241 1.133 6.516.567 1.276 2.126 4.109-1.275 5.809-3.399 1.699-4.816.85-4.958 2.408-.142 1.559-.991 3.258-3.399 3.966-2.409.709-4.534 2.084-7.226 2.387-2.692.304-3.258-1.821-4.674-.687-1.416 1.133-2.55 2.267-3.117 3.684-.566 1.416-2.267.566-2.124 1.416.14.85 2.407 3.258-.143 2.408-2.549-.85-4.816-.566-4.675 1.7.143 2.267 3.259 3.117 4.535 3.401 1.274.283 2.266-1.276 3.824-2.268 1.558-.991.141 1.417.992 3.117.85 1.7 4.108 1.558 4.533 3.966.425 2.408-.142 4.392 2.408 4.675 2.549.284 5.241-.141 5.525 1.134.283 1.275-2.976-.425-3.117 1.133-.142 1.558 2.833 3.683 3.683 2.125.85-1.558 2.975-1.7 3.259-1.133.283.566 0 1.557-.992 3.966-.991 2.409-1.984 1.7-2.833 4.392-.85 2.691-2.267-.142-3.683 1.275-1.417 1.416-3.117 4.391-3.401 1.841-.283-2.549-.283-3.966-1.557-5.949-1.275-1.984-1.842-.426-2.975.85-1.134 1.274-3.684 2.55-2.834 3.682.85 1.134 1.7 4.108 2.975 3.258 1.276-.85 3.259-.85 2.975.567-.283 1.417 0 1.983.567 2.692.566.708 2.55 1.983 2.55-.567 0-2.549-.284-3.258 1.7-3.542 1.983-.283 4.249-.424 4.108.85-.142 1.276.567.992 0 3.118-.567 2.124-2.267 2.265-4.108 3.258-1.842.991-2.834 2.549-4.392 1.983-1.557-.567-1.701-1.133-1.841-2.692-.143-1.558-.992-2.125-1.559-1.416-.566.708.142 2.975-1.983 1.558-2.125-1.416-2.974-3.825-4.108-2.125-1.133 1.699 1.7 4.675-1.275 3.4C9.065 11.616 6.94 10.2 8.5 9.632c1.558-.566 3.116-1.558 1.558-2.125-1.558-.566-4.676.426-5.808-.708C3.116 5.667 0 0 0 0" transform="translate(78.733 125.653)"/>
    <path style="fill:#3fa9f5;fill-opacity:1;fill-rule:nonzero;stroke:none" d="M0 0c-.007-1.583.426-2.833 1.842-1.417C3.258 0 4.108 1.7 5.101.992 6.092.283 7.792.472 8.5.519c.708.047.85 2.172 2.833 1.889 1.983-.283 1.275.425 3.4 1.559 2.125 1.133 6.658 3.116 1.983 2.55-4.674-.567-4.958.708-8.216-1.417-3.258-2.125-3.966-2.125-4.816-2.692-.85-.566-1.842 1.7-2.975 0C-.425.709.008 1.614 0 0" transform="translate(95.449 140.952)"/>
    <path style="fill:#3fa9f5;fill-opacity:1;fill-rule:nonzero;stroke:none" d="M0 0c-1.674-1.446-4.25-3.542-2.267-3.542 1.984 0 2.947 1.039 4.024-.331 1.076-1.368.651-3.493.651-4.485 0-.991-.567-3.259.85-6.092 1.417-2.832 1.558-4.674 2.975-2.832 1.417 1.841 4.817 5.382 6.516 5.665 1.7.284 3.401.992 4.251 2.409.85 1.417 0 2.791 1.416 3.804 1.417 1.012 1.133 2.288 1.559 3.845C20.399 0 24.225 0 22.524.85c-1.7.85-4.816 1.417-8.5.992C10.341 1.417 3.117 2.691 0 0" transform="translate(112.448 145.343)"/>
    <path style="fill:#3fa9f5;fill-opacity:1;fill-rule:nonzero;stroke:none" d="M0 0c-.901-1.47-.425-1.559.567-1.842.991-.283-.426-1.983.708-2.125 1.133-.141 3.683-.849 4.391 0 .709.85-1.133.519-2.408 1.464C1.984-1.559.64 1.044 0 0" transform="translate(96.866 101.57)"/>
    <path style="fill:#3fa9f5;fill-opacity:1;fill-rule:nonzero;stroke:none" d="M0 0c-1.525-.764-.85-1.983-2.267-2.834-1.417-.85-.849-1.133-1.274-3.116-.426-1.983.142-3.116 1.133-1.559C-1.416-5.95 1.7.85 0 0" transform="translate(165.43 78.48)"/>
    <path style="fill:#3fa9f5;fill-opacity:1;fill-rule:nonzero;stroke:none" d="M0 0c-.425-.425-1.133 1.983-1.558 3.116-.425 1.134-.415 3.104.781 4.198C.712 8.681 0 5.525 0 3.824 0 2.125.425.425 0 0m-4.959 4.391c-.992.567-2.832 0-5.099-.707-2.267-.709-.453 1.575.567 3.116.912 1.376.425-.425 2.408-.567 1.984-.142 3.117-2.409 2.124-1.842M-8.216-.425c-.142-1.133.425-2.974-2.692-2.267-3.116.709-3.116 2.409-4.391 1.134s-2.833-2.409-4.675-.425C-21.816 0-21.533.566-22.524.708c-.706.101-3.06.626-5.024.055.152.091.315.211.49.37 1.417 1.275 1.134 1.7 2.692 3.117 1.559 1.417 2.692 2.691 3.825 1.417 1.133-1.276 3.541-1.56 2.692-2.976-.85-1.416-.283-2.266.709-1.416.99.85 2.407 1.416 1.416 2.549-.992 1.134-1.984 4.109-.567 2.126 1.416-1.983 1.841-2.975 2.692-4.108C-12.75.708-11.899 0-11.616.708c.283.708-.142 2.267.283 2.55.425.283 0-2.408 1.275-2.55 1.275-.142 1.983 0 1.842-1.133M6.8-6.517c-.425 2.409-3.542 24.225-3.542 24.225s-8.357 5.382-9.774 4.25c-1.417-1.134-3.825-.963-3.542.155.284 1.119 2.125.835-.992 2.961-3.117 2.125-3.683 3.967-6.09 1.275-2.409-2.692-2.976-4.958-4.393-5.666-1.417-.708-2.55-2.975-.991-3.542 1.559-.566 1.7 0 2.975-1.133 1.275-1.133 2.975-.85 3.258-.142.284.709.567 2.974.708 3.825.142.85 1.583 3.683 1.429 1.416-.154-2.267 1.971-2.267.555-3.824-1.417-1.558-.568-2.834-3.401-3.117-2.833-.283-2.974 1.417-4.533.566-1.558-.849-1.417-1.416-1.983-2.266-.567-.85-3.542-2.55-3.542-2.55s-2.407.851-1.275-.708c1.134-1.559 2.126-3.4 1.134-3.541-.992-.142-3.683 1.416-3.683-.284 0-1.699-.425-3.541.708-3.967.8-.299 1.32-.949 2.054-.858-.569-.246-1.087-.602-1.487-1.124-1.102-1.441-.425-3.967-2.692-4.817-2.266-.851-2.266-1.842-2.692-3.683-.424-1.842 0-6.517.567-6.942.567-.425 1.559-3.967 3.967-3.683 2.409.283 4.958.393 5.808-.016.85-.408 2.267.865 2.691-2.392.425-3.258 1.417-3.683 1.984-5.383.566-1.7-.284-5.243 0-7.368.283-2.124 2.266-5.807 2.266-7.649 0-1.841 2.125-2.69 3.258-1.982 1.134.708 3.542 2.125 4.533 4.391.993 2.266.993 3.4 2.551 6.374 1.558 2.976 1.134 5.101 1.841 7.366.709 2.268 2.413 3.826 4.748 6.375 2.335 2.55 1.915 3.967 0 3.826-1.914-.142-3.192 1.699-4.182 3.966-.99 2.267-2.124 7.933-1.273 6.092.85-1.843 2.549-6.942 4.249-7.792 1.7-.85 4.816 1.444 5.525 2.28.708.837.425 3.245-1.418 4.236-1.841.992-.707 1.842 1.134.709C5.1-7.792 7.225-8.925 6.8-6.517" transform="translate(166.705 108.795)"/>
    <path style="fill:#3fa9f5;fill-opacity:1;fill-rule:nonzero;stroke:none" d="M0 0c-.868-.261-1.558-1.983-1.133-2.834.425-.85-.425.426-1.558-.283-1.134-.708-2.818-2.692-1.267-2.833 1.55-.142 1.267 1.134 2.684.567C.142-5.95 1.7-5.809 1.7-4.392S1.417.425 0 0" transform="translate(139.364 126.078)"/>
    <path style="fill:#3fa9f5;fill-opacity:1;fill-rule:nonzero;stroke:none" d="M0 0c-.854-.122-1.134-2.267.708-2.55 1.842-.283 5.14.425 3.916 1.559C3.4.142 1.983.283 0 0" transform="translate(130.156 132.594)"/>
  </g>
  <g clip-path="url(#b)" transform="matrix(1.33333 0 0 -1.33333 0 266.667)">
    <path style="fill:none;stroke:#3fa9f5;stroke-width:8;stroke-linecap:butt;stroke-linejoin:miter;stroke-miterlimit:10;stroke-dasharray:none;stroke-opacity:1" d="M0 0c0-27.172-22.028-49.201-49.201-49.201-27.173 0-49.201 22.029-49.201 49.201 0 27.173 22.028 49.201 49.201 49.201C-22.028 49.201 0 27.173 0 0Z" transform="translate(171.582 98.877)"/>
  </g>
  <g clip-path="url(#c)" transform="matrix(1.33333 0 0 -1.33333 0 266.667)">
    <path style="fill:#3fa9f5;fill-opacity:1;fill-rule:nonzero;stroke:none" d="M0 0c-2.434-2.433-5.342-3.648-8.729-3.648-3.389 0-6.298 1.215-8.73 3.648-2.431 2.431-3.647 5.341-3.647 8.73 0 3.387 1.216 6.254 3.647 8.599 2.432 2.344 5.341 3.517 8.73 3.517 3.387 0 6.295-1.173 8.729-3.517 2.431-2.345 3.648-5.212 3.648-8.599C3.648 5.341 2.431 2.431 0 0m19.803 36.35C11.987 44.082 2.518 47.947-8.6 47.947c-11.119 0-20.585-3.865-28.402-11.597-7.819-7.728-11.727-17.067-11.727-28.013 0-6.601 3.345-17.631 10.034-33.093 6.686-15.461 13.375-29.532 20.063-42.213C-11.944-79.651-8.6-85.819-8.6-85.471c1.043 1.91 2.476 4.518 4.3 7.816 1.824 3.301 5.037 9.511 9.642 18.632 4.603 9.122 8.643 17.503 12.116 25.148A319.905 319.905 0 0 1 27.1-10.163c2.954 8.165 4.429 14.333 4.429 18.5 0 10.946-3.908 20.285-11.726 28.013" transform="translate(330.729 134.053)"/>
    <path style="fill:#3fa9f5;fill-opacity:1;fill-rule:nonzero;stroke:none" d="M0 0c-2.434-2.433-5.342-3.648-8.729-3.648-3.389 0-6.298 1.215-8.73 3.648-2.431 2.431-3.647 5.341-3.647 8.73 0 3.387 1.216 6.254 3.647 8.599 2.432 2.344 5.341 3.517 8.73 3.517 3.387 0 6.295-1.173 8.729-3.517 2.431-2.345 3.648-5.212 3.648-8.599C3.648 5.341 2.431 2.431 0 0m19.803 36.35C11.987 44.082 2.518 47.947-8.6 47.947c-11.119 0-20.585-3.865-28.402-11.597-7.819-7.728-11.727-17.067-11.727-28.013 0-6.601 3.345-17.631 10.034-33.093 6.686-15.461 13.375-29.532 20.063-42.213C-11.944-79.651-8.6-85.819-8.6-85.471c1.043 1.91 2.476 4.518 4.3 7.816 1.824 3.301 5.037 9.511 9.642 18.632 4.603 9.122 8.643 17.503 12.116 25.148A319.905 319.905 0 0 1 27.1-10.163c2.954 8.165 4.429 14.333 4.429 18.5 0 10.946-3.908 20.285-11.726 28.013" transform="translate(330.729 134.053)"/>
  </g>
  <g clip-path="url(#d)" transform="matrix(1.33333 0 0 -1.33333 0 266.667)">
    <text style="font-variant:normal;font-weight:400;font-stretch:normal;font-size:200px;font-family:&quot;Myriad Pro&quot;;-inkscape-font-specification:MyriadPro-Regular;writing-mode:lr-tb;fill:#3fa9f5;fill-opacity:1;fill-rule:nonzero;stroke:none" transform="matrix(.96881 0 0 -1 22 49)"><tspan y="0" x="0">l</tspan></text>
    <text style="font-variant:normal;font-weight:400;font-stretch:normal;font-size:200px;font-family:&quot;Myriad Pro&quot;;-inkscape-font-specification:MyriadPro-Regular;writing-mode:lr-tb;fill:#3fa9f5;fill-opacity:1;fill-rule:nonzero;stroke:none" transform="matrix(1 0 0 -1 181 50)"><tspan y="0" x="0">c</tspan><tspan y="2.4" x="188.2 273.79999 320.60001 379">zify</tspan></text>
  </g>
</svg>
