<svg xmlns="http://www.w3.org/2000/svg" viewBox="0 0 400 400" height="400" width="400" xml:space="preserve">
  <defs>
    <clipPath id="a" clipPathUnits="userSpaceOnUse">
      <path d="M0 300h300V0H0Z"/>
    </clipPath>
    <clipPath id="b" clipPathUnits="userSpaceOnUse">
      <path d="M134.068 72.845c-.428-2.074 1.28-4.226 3.792-4.609 2.512-.388 4.63 1.166 4.758 3.279.129 2.119-1.537 3.987-3.753 4.338a4.687 4.687 0 0 1-.725.056c-1.945 0-3.697-1.209-4.072-3.064"/>
    </clipPath>
    <clipPath id="c" clipPathUnits="userSpaceOnUse">
      <path d="M0 300h300V0H0Z"/>
    </clipPath>
    <clipPath id="d" clipPathUnits="userSpaceOnUse">
      <path d="M151.642 75.152c.114-2.59.258-5.182.432-7.772 1.817.07 3.624.205 5.42.407a341.508 341.508 0 0 0-.995 7.721 65.785 65.785 0 0 0-4.857-.356"/>
    </clipPath>
    <clipPath id="e" clipPathUnits="userSpaceOnUse">
      <path d="M0 300h300V0H0Z"/>
    </clipPath>
    <clipPath id="f" clipPathUnits="userSpaceOnUse">
      <path d="M81.5 150.049c0-37.068 30.051-67.119 67.119-67.119 37.07 0 67.119 30.051 67.119 67.119 0 37.069-30.049 67.119-67.119 67.119-37.068 0-67.119-30.05-67.119-67.119"/>
    </clipPath>
    <clipPath id="g" clipPathUnits="userSpaceOnUse">
      <path d="M0 300h300V0H0Z"/>
    </clipPath>
    <clipPath id="h" clipPathUnits="userSpaceOnUse">
      <path d="M164.756 131.054h50.982l4.512 88.196-64 1.25z"/>
    </clipPath>
  </defs>
  <g clip-path="url(#a)" transform="matrix(1.33333 0 0 -1.33333 0 400)">
    <path style="fill:#fff;fill-opacity:1;fill-rule:nonzero;stroke:none" d="M0 0c0-24.645-19.979-44.625-44.625-44.625S-89.25-24.645-89.25 0s19.979 44.625 44.625 44.625S0 24.645 0 0" transform="translate(234.75 190.125)"/>
    <path style="fill:#fff;fill-opacity:1;fill-rule:nonzero;stroke:none" d="M0 0c0-47.22-38.279-85.5-85.5-85.5-47.22 0-85.5 38.28-85.5 85.5s38.28 85.5 85.5 85.5C-38.279 85.5 0 47.22 0 0" transform="translate(234.5 150)"/>
  </g>
  <g clip-path="url(#b)" transform="matrix(1.33333 0 0 -1.33333 0 400)">
    <path style="fill:#3fa9f5;fill-opacity:1;fill-rule:nonzero;stroke:none" d="M0 0c-.104-.303-.018-.49-.118-.626-.102-.134-.236-.385-.2-.584.039-.197.077-.621.17-.652.095-.031.007.447.079.286.07-.159.033-.367.177-.547.144-.178.383-.202.541-.378.162-.178.309-.419.489-.428 0 0-.033-.104-.146-.274-.116-.167-.166-.383-.073-.532.089-.152.173-.368.258-.484.084-.115.083-.649.019-.905-.064-.254-.011-.865.295-1.053.301-.186.006.066-.035.24-.04.173.127.534.288.561.161.029.33.222.463.356.135.133.432.15.545.321.113.173.103.393.165.484.064.09.229.285-.053.465-.28.178-.41.132-.407.254.002.122-.05.263-.251.352-.205.091-.371.23-.602.293-.23.066-.303-.086-.414.022-.107.11-.191.216-.222.332-.031.118-.192.083-.167.143.023.064.246.21.016.189-.229-.025-.42.036-.377.207.044.17.32.183.431.184.116 0 .179-.136.299-.236.124-.102.032.105.126.221.095.117.371.053.433.233.067.178.044.335.263.321.223-.019.444-.091.482.005.039.09-.256.008-.25.13.005.122.283.241.335.111.054-.133.233-.175.262-.135.032.038.019.119-.037.317-.056.199-.147.159-.187.376-.04.219-.193.023-.294.151-.102.13-.206.382-.261.192-.056-.189-.073-.3-.207-.432-.13-.129-.159-.002-.237.113-.077.116-.275.253-.19.326.089.07.196.285.29.202.098-.087.26-.116.257-.004-.006.112.023.151.081.197.056.044.236.112.203-.082-.031-.194-.064-.245.099-.295.163-.049.349-.094.35.004.006.102.06.07.039.239-.021.171-.162.207-.302.31-.139.102-.202.235-.337.215-.136-.019-.155-.059-.186-.178-.033-.117-.11-.148-.147-.081-.039.061.049.222-.145.147C1.417.519 1.314.35 1.243.496c-.071.148.203.329-.061.28C.919.727.724.655.846.586c.122-.067.235-.17.1-.188C.809.383.562.51.455.44.342.375 0 0 0 0" transform="translate(134.975 74.719)"/>
    <path style="fill:#3fa9f5;fill-opacity:1;fill-rule:nonzero;stroke:none" d="M0 0c-.019-.12 0-.224.137-.137.134.085.225.202.298.134.072-.069.214-.081.272-.087.06-.008.097.152.258.102.158-.048.108.013.298.07.187.058.582.147.194.167-.391.022-.397.125-.693.01C.47.145.412.157.338.127.258.097.208.284.09.172-.022.061.024.121 0 0" transform="translate(136.574 75.605)"/>
    <path style="fill:#3fa9f5;fill-opacity:1;fill-rule:nonzero;stroke:none" d="M0 0c-.152-.085-.392-.21-.226-.239.163-.027.255.038.325-.079.075-.121.014-.279.003-.352-.011-.076-.083-.242 0-.479.087-.235.079-.377.219-.257.137.121.46.348.603.348.143.001.294.036.378.133.085.099.027.214.154.275.128.061.118.162.168.275.049.114.363.071.231.158-.13.082-.38.161-.684.175C.864-.029.289.162 0 0" transform="translate(138.026 75.688)"/>
    <path style="fill:#3fa9f5;fill-opacity:1;fill-rule:nonzero;stroke:none" d="M0 0c-.096-.098-.057-.113.027-.15.08-.038-.061-.145.035-.173C.156-.352.37-.446.44-.394c.071.056-.092.058-.191.151C.15-.151.071.068 0 0" transform="translate(136.188 72.578)"/>
    <path style="fill:#3fa9f5;fill-opacity:1;fill-rule:nonzero;stroke:none" d="M0 0c-.138-.045-.087-.146-.217-.196-.127-.054-.081-.08-.127-.232-.052-.148-.009-.241.087-.13C-.159-.447.155.05 0 0" transform="translate(141.944 69.946)"/>
    <path style="fill:#3fa9f5;fill-opacity:1;fill-rule:nonzero;stroke:none" d="M0 0c-.043-.029-.086.164-.115.254-.029.092-.016.242.091.317C.114.663.033.428.023.297.012.163.036.028 0 0m-.395.382c-.081.054-.24.025-.44-.007-.196-.032-.026.126.07.235.089.098.036-.038.203-.066.165-.028.249-.213.167-.162M-.707.043c-.018-.088.016-.235-.246-.151-.259.087-.248.216-.368.129-.118-.083-.259-.153-.4.019-.143.172-.114.213-.197.233-.061.015-.255.083-.429.063a.325.325 0 0 1 .044.019c.135.085.115.12.258.211.147.092.25.178.337.068.085-.111.287-.156.204-.256-.085-.1-.044-.173.05-.118.089.056.213.084.139.182-.076.099-.135.336-.033.17.105-.168.134-.248.198-.343.065-.096.132-.159.162-.107.029.053.006.174.041.194.039.017-.014-.185.093-.21.107-.023.17-.017.147-.103m1.248-.6a83.85 83.85 0 0 0-.157 1.895c-.001-.001-.666.485-.789.411-.127-.073-.328-.039-.293.045.031.085.182.044-.058.237-.244.194-.275.342-.499.16-.222-.184-.289-.352-.411-.391-.125-.041-.241-.201-.114-.263.127-.059.141-.016.239-.118.098-.101.243-.095.271-.043.033.051.074.222.093.285.018.065.158.269.129.097-.03-.175.148-.195.018-.302-.135-.104-.069-.212-.312-.205-.24.007-.237.141-.374.092-.139-.05-.132-.093-.186-.154-.059-.057-.323-.157-.324-.157 0 0-.193.092-.112-.039.082-.132.151-.287.066-.286-.088.001-.303.153-.317.022-.015-.129-.069-.267.024-.313.065-.034.104-.09.169-.091a.288.288 0 0 1-.137-.069c-.106-.097-.072-.3-.274-.338-.202-.038-.212-.113-.264-.25-.055-.137-.06-.499-.017-.541.047-.039.101-.322.315-.331.208-.005.432-.027.503-.067.073-.043.206.038.216-.217.012-.254.097-.298.133-.434.037-.137-.064-.401-.056-.567.01-.168.162-.474.148-.615-.014-.143.169-.23.277-.188.106.043.33.128.431.293.104.165.11.254.267.466.159.216.131.383.211.553.076.166.232.271.454.446.216.177.189.291.021.296-.167.006-.266.16-.337.342-.073.183-.132.632-.071.484.061-.152.176-.561.316-.642.145-.08.426.071.493.128.066.062.056.25-.096.339-.154.094-.052.15.101.047.15-.103.327-.206.303-.017" transform="translate(142.24 72.272)"/>
    <path style="fill:#3fa9f5;fill-opacity:1;fill-rule:nonzero;stroke:none" d="M0 0c-.079-.011-.151-.136-.125-.206.028-.068-.032.037-.132-.004-.102-.041-.264-.175-.134-.202.128-.029.118.073.232.012.114-.058.247-.066.259.044C.113-.247.119.016 0 0" transform="translate(140.06 73.875)"/>
    <path style="fill:#3fa9f5;fill-opacity:1;fill-rule:nonzero;stroke:none" d="M0 0c-.073.001-.118-.162.035-.207.15-.043.432-.025.341.074C.286-.029.17-.003 0 0" transform="translate(139.35 74.483)"/>
  </g>
  <g clip-path="url(#c)" transform="matrix(1.33333 0 0 -1.33333 0 400)">
    <path style="fill:none;stroke:#3fa9f5;stroke-width:1;stroke-linecap:butt;stroke-linejoin:miter;stroke-miterlimit:10;stroke-dasharray:none;stroke-opacity:1" d="M0 0c-.128-2.097-2.229-3.632-4.717-3.249-2.49.38-4.183 2.509-3.764 4.565.42 2.065 2.558 3.322 4.755 2.983C-1.525 3.952.131 2.1 0 0Z" transform="translate(142.596 71.467)"/>
  </g>
  <g clip-path="url(#d)" transform="matrix(1.33333 0 0 -1.33333 0 400)">
    <path style="fill:#3fa9f5;fill-opacity:1;fill-rule:nonzero;stroke:none" d="M0 0a.769.769 0 0 0-.531-.255.798.798 0 0 0-.568.174.677.677 0 0 0-.08 1.008.787.787 0 0 0 .525.242.789.789 0 0 0 .558-.164A.667.667 0 0 0 0 0m1.006 2.218a2.511 2.511 0 0 1-1.783.524c-.669-.049-1.226-.304-1.68-.778C-2.911 1.491-3.13.941-3.1.305c.022-.385.262-1.022.754-1.901.49-.88.993-1.673 1.506-2.382.512-.705.778-1.045.775-1.024l.242.476c.102.2.276.579.522 1.132.244.556.451 1.065.623 1.531.17.463.319.942.449 1.435.127.491.173.861.144 1.1-.077.632-.386 1.147-.909 1.546" transform="translate(154.849 72.543)"/>
    <path style="fill:#3fa9f5;fill-opacity:1;fill-rule:nonzero;stroke:none" d="M0 0a.769.769 0 0 0-.531-.255.798.798 0 0 0-.568.174.677.677 0 0 0-.08 1.008.787.787 0 0 0 .525.242.789.789 0 0 0 .558-.164A.667.667 0 0 0 0 0m1.006 2.218a2.511 2.511 0 0 1-1.783.524c-.669-.049-1.226-.304-1.68-.778C-2.911 1.491-3.13.941-3.1.305c.022-.385.262-1.022.754-1.901.49-.88.993-1.673 1.506-2.382.512-.705.778-1.045.775-1.024l.242.476c.102.2.276.579.522 1.132.244.556.451 1.065.623 1.531.17.463.319.942.449 1.435.127.491.173.861.144 1.1-.077.632-.386 1.147-.909 1.546" transform="translate(154.849 72.543)"/>
  </g>
  <g clip-path="url(#e)" transform="matrix(1.33333 0 0 -1.33333 0 400)">
    <path style="fill:#3fa9f5;fill-opacity:1;fill-rule:nonzero;stroke:none" d="M0 0c.336-.106.672-.21 1.008-.311A338.138 338.138 0 0 1-.786-6.952a73.846 73.846 0 0 1 3.68-.989l-.169-.819a75.635 75.635 0 0 0-4.839 1.34A341.515 341.515 0 0 0 0 0" transform="translate(128.915 78.23)"/>
    <path style="fill:#3fa9f5;fill-opacity:1;fill-rule:nonzero;stroke:none" d="M0 0c-.414-.19-1.26-.389-2.356-.376-2.557.029-4.431 1.563-4.279 4.085.149 2.414 1.98 3.891 4.456 3.864 1.004-.011 1.639-.203 1.92-.336l-.232-.816c-.405.178-.975.31-1.653.316-1.899.021-3.232-1.044-3.318-3.07-.08-1.881 1.151-3.187 3.33-3.21.7-.006 1.408.126 1.859.328C-.183.523-.092.262 0 0" transform="translate(150.707 67.696)"/>
    <path style="fill:#3fa9f5;fill-opacity:1;fill-rule:nonzero;stroke:none" d="M0 0a78.353 78.353 0 0 1 3.551 6.885l-.007.034a66.434 66.434 0 0 0-4.036-.64l-.112.826c1.78.227 3.545.525 5.291.893l.128-.592A78.514 78.514 0 0 0 1.444.48l.005-.033c1.621.234 3.231.521 4.825.862L6.47.496A74.151 74.151 0 0 0 .087-.577L0 0" transform="translate(158.21 68.506)"/>
    <path style="fill:#3fa9f5;fill-opacity:1;fill-rule:nonzero;stroke:none" d="M0 0a69.253 69.253 0 0 0-3.146-.862c.239-.896.482-1.79.728-2.684 1.224.306 2.438.643 3.641 1.012l.264-.792A72.587 72.587 0 0 0-3.304-4.62 341.767 341.767 0 0 0-5.17 2.86c1.388.323 2.764.69 4.123 1.101l.245-.798a67.08 67.08 0 0 0-3.169-.871c.201-.787.406-1.572.613-2.357 1.045.259 2.082.543 3.11.851L0 0" transform="translate(169.355 73.929)"/>
    <path style="fill:#3fa9f5;fill-opacity:1;fill-rule:nonzero;stroke:none" d="M0 0c-.063.174.025.341.214.405C.402.47.575.393.641.219.705.051.628-.119.428-.187.237-.253.061-.17 0 0" transform="translate(172.653 71.459)"/>
    <path style="fill:#3fa9f5;fill-opacity:1;fill-rule:nonzero;stroke:none" d="M0 0a2.024 2.024 0 0 0-.69-.413c-.785-.295-1.476-.01-1.736.684-.262.699.08 1.391.896 1.698.268.1.53.132.677.124l.025-.356c-.131.015-.322-.002-.572-.095-.576-.216-.745-.71-.562-1.183.201-.524.713-.708 1.226-.514.266.1.417.227.53.329L0 0" transform="translate(175.788 72.413)"/>
    <path style="fill:#3fa9f5;fill-opacity:1;fill-rule:nonzero;stroke:none" d="M0 0c.207-.489.69-.728 1.143-.54.443.184.607.686.379 1.183-.17.375-.593.757-1.124.536C-.136.959-.18.425 0 0m1.981.856c.38-.812-.105-1.451-.725-1.707C.562-1.14-.165-.906-.459-.198c-.312.749.052 1.402.734 1.684.706.294 1.394.043 1.706-.63" transform="translate(176.147 73.756)"/>
    <path style="fill:#3fa9f5;fill-opacity:1;fill-rule:nonzero;stroke:none" d="M0 0a7.295 7.295 0 0 1-.299.585L.09.76.277.417l.016.007c.038.269.171.566.57.754a.82.82 0 0 0 .903-.109l.009.004a.98.98 0 0 0 .579.825c.316.157.882.21 1.284-.528.226-.419.455-.838.683-1.256l-.438-.222c-.217.403-.434.806-.649 1.21-.219.412-.519.572-.872.398a.617.617 0 0 1-.336-.611.655.655 0 0 1 .066-.214c.226-.445.455-.889.683-1.332l-.442-.214c-.22.432-.437.864-.655 1.297-.174.345-.469.514-.806.357a.644.644 0 0 1-.359-.65.547.547 0 0 1 .058-.212c.211-.439.423-.878.637-1.317L.76-1.597C.505-1.065.252-.532 0 0" transform="translate(178.466 75.348)"/>
  </g>
  <g clip-path="url(#f)" transform="matrix(1.33333 0 0 -1.33333 0 400)">
    <path style="fill:#2196f3;fill-opacity:1;fill-rule:nonzero;stroke:none" d="M0 0c-.766-5.554 1.148-8.427 0-11.107-1.149-2.681-2.49-7.469-1.341-10.724 1.149-3.255 2.872-10.34 4.404-10.533 1.532-.19-1.148 7.66.383 5.171 1.533-2.49 1.533-6.193 4.214-8.746 2.68-2.553 6.32-2.17 9.191-4.658 2.873-2.49 5.744-6.129 8.426-5.746 0 0-.192-1.914-1.532-5.17-1.34-3.255-1.533-7.084.192-9.383 1.723-2.298 3.446-5.746 4.979-7.469 1.532-1.723 2.681-10.915 2.297-15.51-.382-4.596 1.724-14.937 6.511-17.236 4.787-2.298 0 1.15-.957 4.022-.958 2.872.739 9.575 3.052 10.533 2.309.958 4.417 4.787 6.139 7.469 1.723 2.68 6.128 3.83 7.469 7.084 1.341 3.255.766 7.085 1.531 8.809.767 1.724 2.874 5.554-1.722 7.852s-6.511 1.148-6.703 3.255c-.192 2.107-1.34 4.404-4.595 5.361-3.257.959-6.129 2.816-9.768 3.227-3.638.412-4.404-2.461-6.319-.928-1.914 1.531-3.446 3.064-4.213 4.978-.765 1.915-3.064.766-2.871 1.915.19 1.15 3.254 4.404-.193 3.255-3.446-1.148-6.51-.765-6.319 2.298.193 3.064 4.405 4.214 6.129 4.597 1.723.383 3.063-1.723 5.17-3.065 2.106-1.34.191 1.915 1.34 4.214 1.149 2.298 5.554 2.106 6.128 5.361.575 3.255-.191 5.937 3.256 6.32 3.446.383 7.085-.191 7.468 1.533.382 1.722-4.022-.576-4.213 1.531-.192 2.106 3.83 4.978 4.978 2.872 1.149-2.106 4.022-2.298 4.405-1.531.382.765 0 2.105-1.34 5.361s-2.682 2.298-3.83 5.936c-1.149 3.639-3.065-.191-4.979 1.724-1.916 1.915-4.213 5.937-4.597 2.489-.382-3.446-.382-5.361-2.105-8.042-1.724-2.682-2.489-.575-4.022 1.149-1.532 1.723-4.979 3.447-3.831 4.978C23.362 4.979 24.511 9 26.234 7.85c1.724-1.149 4.405-1.149 4.021.767-.382 1.914 0 2.681.767 3.638.766.958 3.446 2.682 3.446-.766 0-3.447-.383-4.405 2.299-4.788 2.681-.383 5.744-.574 5.554 1.149-.193 1.724.766 1.341 0 4.214-.767 2.873-3.065 3.063-5.554 4.405-2.489 1.34-3.83 3.446-5.936 2.68-2.107-.766-2.299-1.531-2.49-3.638-.192-2.107-1.341-2.873-2.107-1.915-.766.957.192 4.022-2.68 2.106-2.873-1.914-4.021-5.171-5.553-2.872-1.533 2.297 2.297 6.319-1.724 4.595-4.022-1.723-6.895-3.637-4.788-4.404 2.107-.766 4.214-2.107 2.107-2.873-2.107-.765-6.32.575-7.852-.957C4.212 7.66 0 0 0 0" transform="translate(89.926 185.38)"/>
    <path style="fill:none;stroke:#2196f3;stroke-width:1;stroke-linecap:butt;stroke-linejoin:miter;stroke-miterlimit:10;stroke-dasharray:none;stroke-opacity:1" d="M0 0c-.766-5.554 1.148-8.427 0-11.107-1.149-2.681-2.49-7.469-1.341-10.724 1.149-3.255 2.872-10.34 4.404-10.533 1.532-.19-1.148 7.66.383 5.171 1.533-2.49 1.533-6.193 4.214-8.746 2.68-2.553 6.32-2.17 9.191-4.658 2.873-2.49 5.744-6.129 8.426-5.746 0 0-.192-1.914-1.532-5.17-1.34-3.255-1.533-7.084.192-9.383 1.723-2.298 3.446-5.746 4.979-7.469 1.532-1.723 2.681-10.915 2.297-15.51-.382-4.596 1.724-14.937 6.511-17.236 4.787-2.298 0 1.15-.957 4.022-.958 2.872.739 9.575 3.052 10.533 2.309.958 4.417 4.787 6.139 7.469 1.723 2.68 6.128 3.83 7.469 7.084 1.341 3.255.766 7.085 1.531 8.809.767 1.724 2.874 5.554-1.722 7.852s-6.511 1.148-6.703 3.255c-.192 2.107-1.34 4.404-4.595 5.361-3.257.959-6.129 2.816-9.768 3.227-3.638.412-4.404-2.461-6.319-.928-1.914 1.531-3.446 3.064-4.213 4.978-.765 1.915-3.064.766-2.871 1.915.19 1.15 3.254 4.404-.193 3.255-3.446-1.148-6.51-.765-6.319 2.298.193 3.064 4.405 4.214 6.129 4.597 1.723.383 3.063-1.723 5.17-3.065 2.106-1.34.191 1.915 1.34 4.214 1.149 2.298 5.554 2.106 6.128 5.361.575 3.255-.191 5.937 3.256 6.32 3.446.383 7.085-.191 7.468 1.533.382 1.722-4.022-.576-4.213 1.531-.192 2.106 3.83 4.978 4.978 2.872 1.149-2.106 4.022-2.298 4.405-1.531.382.765 0 2.105-1.34 5.361s-2.682 2.298-3.83 5.936c-1.149 3.639-3.065-.191-4.979 1.724-1.916 1.915-4.213 5.937-4.597 2.489-.382-3.446-.382-5.361-2.105-8.042-1.724-2.682-2.489-.575-4.022 1.149-1.532 1.723-4.979 3.447-3.831 4.978C23.362 4.979 24.511 9 26.234 7.85c1.724-1.149 4.405-1.149 4.021.767-.382 1.914 0 2.681.767 3.638.766.958 3.446 2.682 3.446-.766 0-3.447-.383-4.405 2.299-4.788 2.681-.383 5.744-.574 5.554 1.149-.193 1.724.766 1.341 0 4.214-.767 2.873-3.065 3.063-5.554 4.405-2.489 1.34-3.83 3.446-5.936 2.68-2.107-.766-2.299-1.531-2.49-3.638-.192-2.107-1.341-2.873-2.107-1.915-.766.957.192 4.022-2.68 2.106-2.873-1.914-4.021-5.171-5.553-2.872-1.533 2.297 2.297 6.319-1.724 4.595-4.022-1.723-6.895-3.637-4.788-4.404 2.107-.766 4.214-2.107 2.107-2.873-2.107-.765-6.32.575-7.852-.957C4.212 7.66 0 0 0 0Z" transform="translate(89.926 185.38)"/>
    <path style="fill:#2196f3;fill-opacity:1;fill-rule:nonzero;stroke:none" d="M0 0c-.01-2.141.576-3.829 2.49-1.915C4.405 0 5.554 2.298 6.895 1.341 8.235.383 10.533.638 11.49.702c.958.064 1.15 2.937 3.83 2.554 2.682-.383 1.725.574 4.596 2.107 2.873 1.532 9.001 4.212 2.682 3.446-6.321-.766-6.703.958-11.108-1.914-4.403-2.873-5.361-2.873-6.51-3.639-1.149-.766-2.49 2.298-4.021 0C-.574.958.012 2.182 0 0" transform="translate(112.522 206.061)"/>
    <path style="fill:none;stroke:#2196f3;stroke-width:1;stroke-linecap:butt;stroke-linejoin:miter;stroke-miterlimit:10;stroke-dasharray:none;stroke-opacity:1" d="M0 0c-.01-2.141.576-3.829 2.49-1.915C4.405 0 5.554 2.298 6.895 1.341 8.235.383 10.533.638 11.49.702c.958.064 1.15 2.937 3.83 2.554 2.682-.383 1.725.574 4.596 2.107 2.873 1.532 9.001 4.212 2.682 3.446-6.321-.766-6.703.958-11.108-1.914-4.403-2.873-5.361-2.873-6.51-3.639-1.149-.766-2.49 2.298-4.021 0C-.574.958.012 2.182 0 0Z" transform="translate(112.522 206.061)"/>
    <path style="fill:#2196f3;fill-opacity:1;fill-rule:nonzero;stroke:none" d="M0 0c-2.264-1.956-5.744-4.788-3.064-4.788 2.681 0 3.982 1.404 5.439-.447 1.455-1.85.88-4.723.88-6.063 0-1.341-.767-4.406 1.149-8.235 1.916-3.829 2.107-6.319 4.022-3.829 1.915 2.488 6.511 7.276 8.808 7.658 2.298.384 4.597 1.342 5.746 3.257s0 3.773 1.915 5.141c1.914 1.369 1.531 3.093 2.107 5.199C27.574 0 32.746 0 30.447 1.148c-2.297 1.15-6.51 1.916-11.49 1.341C13.979 1.915 4.213 3.638 0 0" transform="translate(135.502 211.998)"/>
    <path style="fill:none;stroke:#2196f3;stroke-width:1;stroke-linecap:butt;stroke-linejoin:miter;stroke-miterlimit:10;stroke-dasharray:none;stroke-opacity:1" d="M0 0c-2.264-1.956-5.744-4.788-3.064-4.788 2.681 0 3.982 1.404 5.439-.447 1.455-1.85.88-4.723.88-6.063 0-1.341-.767-4.406 1.149-8.235 1.916-3.829 2.107-6.319 4.022-3.829 1.915 2.488 6.511 7.276 8.808 7.658 2.298.384 4.597 1.342 5.746 3.257s0 3.773 1.915 5.141c1.914 1.369 1.531 3.093 2.107 5.199C27.574 0 32.746 0 30.447 1.148c-2.297 1.15-6.51 1.916-11.49 1.341C13.979 1.915 4.213 3.638 0 0Z" transform="translate(135.502 211.998)"/>
    <path style="fill:#2196f3;fill-opacity:1;fill-rule:nonzero;stroke:none" d="M0 0c-1.219-1.986-.574-2.107.766-2.49 1.339-.383-.575-2.68.957-2.872 1.532-.193 4.979-1.15 5.936 0 .958 1.148-1.531.7-3.255 1.977C2.682-2.107.865 1.41 0 0" transform="translate(114.438 152.826)"/>
    <path style="fill:none;stroke:#2196f3;stroke-width:1;stroke-linecap:butt;stroke-linejoin:miter;stroke-miterlimit:10;stroke-dasharray:none;stroke-opacity:1" d="M0 0c-1.219-1.986-.574-2.107.766-2.49 1.339-.383-.575-2.68.957-2.872 1.532-.193 4.979-1.15 5.936 0 .958 1.148-1.531.7-3.255 1.977C2.682-2.107.865 1.41 0 0Z" transform="translate(114.438 152.826)"/>
    <path style="fill:#2196f3;fill-opacity:1;fill-rule:nonzero;stroke:none" d="M0 0c-2.063-1.033-1.148-2.682-3.064-3.831-1.915-1.148-1.149-1.531-1.723-4.213-.575-2.68.191-4.212 1.532-2.106S2.298 1.148 0 0" transform="translate(207.121 121.612)"/>
    <path style="fill:none;stroke:#2196f3;stroke-width:1;stroke-linecap:butt;stroke-linejoin:miter;stroke-miterlimit:10;stroke-dasharray:none;stroke-opacity:1" d="M0 0c-2.063-1.033-1.148-2.682-3.064-3.831-1.915-1.148-1.149-1.531-1.723-4.213-.575-2.68.191-4.212 1.532-2.106S2.298 1.148 0 0Z" transform="translate(207.121 121.612)"/>
    <path style="fill:#2196f3;fill-opacity:1;fill-rule:nonzero;stroke:none" d="M0 0c-.575-.575-1.532 2.681-2.106 4.213-.575 1.532-.561 4.195 1.056 5.675C.964 11.734 0 7.469 0 5.17 0 2.873.574.575 0 0m-6.704 5.936c-1.341.766-3.828 0-6.892-.957-3.065-.958-.613 2.131.766 4.213 1.233 1.861.574-.574 3.256-.766 2.68-.192 4.213-3.256 2.87-2.49m-4.402-6.511c-.192-1.531.574-4.021-3.639-3.064-4.213.958-4.213 3.256-5.936 1.533-1.723-1.724-3.83-3.255-6.32-.575C-29.49 0-29.107.766-30.447.958c-.955.135-4.138.846-6.792.074.206.123.426.285.663.5 1.915 1.723 1.532 2.298 3.638 4.213 2.108 1.916 3.639 3.638 5.171 1.916 1.532-1.725 4.788-2.108 3.639-4.023-1.149-1.914-.383-3.063.958-1.914 1.339 1.149 3.255 1.914 1.915 3.446-1.342 1.532-2.682 5.554-.766 2.873 1.915-2.681 2.489-4.022 3.637-5.553C-17.234.958-16.085 0-15.702.958c.383.957-.192 3.063.383 3.446.574.383 0-3.255 1.723-3.446 1.723-.192 2.681 0 2.49-1.533M9.192-8.81c-.574 3.257-4.787 32.747-4.787 32.747s-11.299 7.277-13.213 5.746c-1.916-1.533-5.171-1.302-4.788.21s2.872 1.128-1.341 4.002c-4.212 2.873-4.978 5.362-8.233 1.724-3.257-3.639-4.022-6.703-5.937-7.661-1.915-.957-3.447-4.021-1.34-4.787 2.106-.765 2.298 0 4.02-1.531 1.725-1.533 4.023-1.149 4.406-.193.383.959.766 4.022.957 5.171.192 1.149 2.138 4.979 1.93 1.915-.207-3.064 2.665-3.064.75-5.17-1.914-2.106-.765-3.831-4.595-4.214-3.831-.382-4.022 1.915-6.128.766-2.107-1.148-1.915-1.915-2.681-3.063-.766-1.149-4.788-3.447-4.788-3.447s-3.255 1.149-1.724-.958c1.533-2.106 2.873-4.595 1.533-4.786-1.341-.192-4.98 1.914-4.98-.384s-.573-4.787.959-5.362c1.081-.405 1.783-1.284 2.775-1.161-.769-.332-1.468-.813-2.009-1.52-1.491-1.947-.575-5.362-3.639-6.511-3.063-1.15-3.063-2.489-3.639-4.979-.573-2.489 0-8.808.766-9.383.765-.574 2.107-5.362 5.363-4.978 3.256.383 6.702.53 7.851-.023 1.149-.551 3.063 1.171 3.638-3.233.575-4.404 1.915-4.979 2.681-7.277.766-2.297-.383-7.086 0-9.958s3.064-7.852 3.064-10.341c0-2.489 2.873-3.638 4.405-2.681 1.532.958 4.787 2.873 6.127 5.937 1.342 3.063 1.342 4.595 3.447 8.617 2.106 4.021 1.533 6.894 2.489 9.958.958 3.064 3.262 5.171 6.419 8.617 3.156 3.446 2.588 5.362 0 5.171-2.588-.191-4.314 2.297-5.654 5.361-1.338 3.065-2.87 10.724-1.721 8.235 1.149-2.491 3.446-9.384 5.744-10.533 2.298-1.149 6.512 1.953 7.469 3.083.957 1.131.574 4.385-1.916 5.726C.383-8.617 1.915-7.469 4.405-9c2.489-1.532 5.362-3.064 4.787.19" transform="translate(208.845 162.592)"/>
    <path style="fill:none;stroke:#2196f3;stroke-width:1;stroke-linecap:butt;stroke-linejoin:miter;stroke-miterlimit:10;stroke-dasharray:none;stroke-opacity:1" d="M0 0c-.575-.575-1.532 2.681-2.106 4.213-.575 1.532-.561 4.195 1.056 5.675C.964 11.734 0 7.469 0 5.17 0 2.873.574.575 0 0Zm-6.704 5.936c-1.341.766-3.828 0-6.892-.957-3.065-.958-.613 2.131.766 4.213 1.233 1.861.574-.574 3.256-.766 2.68-.192 4.213-3.256 2.87-2.49zm-4.402-6.511c-.192-1.531.574-4.021-3.639-3.064-4.213.958-4.213 3.256-5.936 1.533-1.723-1.724-3.83-3.255-6.32-.575C-29.49 0-29.107.766-30.447.958c-.955.135-4.138.846-6.792.074.206.123.426.285.663.5 1.915 1.723 1.532 2.298 3.638 4.213 2.108 1.916 3.639 3.638 5.171 1.916 1.532-1.725 4.788-2.108 3.639-4.023-1.149-1.914-.383-3.063.958-1.914 1.339 1.149 3.255 1.914 1.915 3.446-1.342 1.532-2.682 5.554-.766 2.873 1.915-2.681 2.489-4.022 3.637-5.553C-17.234.958-16.085 0-15.702.958c.383.957-.192 3.063.383 3.446.574.383 0-3.255 1.723-3.446 1.723-.192 2.681 0 2.49-1.533zM9.192-8.81c-.574 3.257-4.787 32.747-4.787 32.747s-11.299 7.277-13.213 5.746c-1.916-1.533-5.171-1.302-4.788.21s2.872 1.128-1.341 4.002c-4.212 2.873-4.978 5.362-8.233 1.724-3.257-3.639-4.022-6.703-5.937-7.661-1.915-.957-3.447-4.021-1.34-4.787 2.106-.765 2.298 0 4.02-1.531 1.725-1.533 4.023-1.149 4.406-.193.383.959.766 4.022.957 5.171.192 1.149 2.138 4.979 1.93 1.915-.207-3.064 2.665-3.064.75-5.17-1.914-2.106-.765-3.831-4.595-4.214-3.831-.382-4.022 1.915-6.128.766-2.107-1.148-1.915-1.915-2.681-3.063-.766-1.149-4.788-3.447-4.788-3.447s-3.255 1.149-1.724-.958c1.533-2.106 2.873-4.595 1.533-4.786-1.341-.192-4.98 1.914-4.98-.384s-.573-4.787.959-5.362c1.081-.405 1.783-1.284 2.775-1.161-.769-.332-1.468-.813-2.009-1.52-1.491-1.947-.575-5.362-3.639-6.511-3.063-1.15-3.063-2.489-3.639-4.979-.573-2.489 0-8.808.766-9.383.765-.574 2.107-5.362 5.363-4.978 3.256.383 6.702.53 7.851-.023 1.149-.551 3.063 1.171 3.638-3.233.575-4.404 1.915-4.979 2.681-7.277.766-2.297-.383-7.086 0-9.958s3.064-7.852 3.064-10.341c0-2.489 2.873-3.638 4.405-2.681 1.532.958 4.787 2.873 6.127 5.937 1.342 3.063 1.342 4.595 3.447 8.617 2.106 4.021 1.533 6.894 2.489 9.958.958 3.064 3.262 5.171 6.419 8.617 3.156 3.446 2.588 5.362 0 5.171-2.588-.191-4.314 2.297-5.654 5.361-1.338 3.065-2.87 10.724-1.721 8.235 1.149-2.491 3.446-9.384 5.744-10.533 2.298-1.149 6.512 1.953 7.469 3.083.957 1.131.574 4.385-1.916 5.726C.383-8.617 1.915-7.469 4.405-9c2.489-1.532 5.362-3.064 4.787.19z" transform="translate(208.845 162.592)"/>
    <path style="fill:#2196f3;fill-opacity:1;fill-rule:nonzero;stroke:none" d="M0 0c-1.173-.353-2.106-2.681-1.532-3.831.576-1.148-.574.576-2.106-.382-1.533-.957-3.808-3.639-1.713-3.829 2.096-.193 1.713 1.531 3.628.765 1.915-.765 4.021-.575 4.021 1.34C2.298-4.021 1.915.574 0 0" transform="translate(171.886 185.955)"/>
    <path style="fill:none;stroke:#2196f3;stroke-width:1;stroke-linecap:butt;stroke-linejoin:miter;stroke-miterlimit:10;stroke-dasharray:none;stroke-opacity:1" d="M0 0c-1.173-.353-2.106-2.681-1.532-3.831.576-1.148-.574.576-2.106-.382-1.533-.957-3.808-3.639-1.713-3.829 2.096-.193 1.713 1.531 3.628.765 1.915-.765 4.021-.575 4.021 1.34C2.298-4.021 1.915.574 0 0Z" transform="translate(171.886 185.955)"/>
    <path style="fill:#2196f3;fill-opacity:1;fill-rule:nonzero;stroke:none" d="M0 0c-1.154-.165-1.533-3.064.957-3.447 2.49-.383 6.947.575 5.293 2.107C4.596.191 2.682.383 0 0" transform="translate(159.44 194.763)"/>
    <path style="fill:none;stroke:#2196f3;stroke-width:1;stroke-linecap:butt;stroke-linejoin:miter;stroke-miterlimit:10;stroke-dasharray:none;stroke-opacity:1" d="M0 0c-1.154-.165-1.533-3.064.957-3.447 2.49-.383 6.947.575 5.293 2.107C4.596.191 2.682.383 0 0Z" transform="translate(159.44 194.763)"/>
  </g>
  <g clip-path="url(#g)" transform="matrix(1.33333 0 0 -1.33333 0 400)">
    <path style="fill:none;stroke:#2196f3;stroke-width:1;stroke-linecap:butt;stroke-linejoin:miter;stroke-miterlimit:10;stroke-dasharray:none;stroke-opacity:1" d="M0 0c0-37.068-30.05-67.119-67.119-67.119S-134.238-37.068-134.238 0c0 37.069 30.05 67.119 67.119 67.119S0 37.069 0 0Z" transform="translate(215.738 150.049)"/>
    <path style="fill:none;stroke:#2196f3;stroke-width:8;stroke-linecap:butt;stroke-linejoin:miter;stroke-miterlimit:10;stroke-dasharray:none;stroke-opacity:1" d="M0 0c0-36.731-29.777-66.509-66.509-66.509S-133.019-36.731-133.019 0c0 36.733 29.778 66.51 66.51 66.51C-29.777 66.51 0 36.733 0 0Z" transform="translate(215.438 149.185)"/>
  </g>
  <g clip-path="url(#h)" transform="matrix(1.33333 0 0 -1.33333 0 400)">
    <path style="fill:#fff;fill-opacity:1;fill-rule:nonzero;stroke:none" d="M0 0c-1.542-1.541-3.386-2.311-5.533-2.311-2.148 0-3.991.77-5.532 2.311s-2.313 3.387-2.313 5.533c0 2.147.772 3.963 2.313 5.45 1.541 1.486 3.384 2.23 5.532 2.23 2.147 0 3.991-.744 5.533-2.23 1.54-1.487 2.312-3.303 2.312-5.45C2.312 3.387 1.54 1.541 0 0m12.551 23.039c-4.954 4.9-10.954 7.35-18.001 7.35-7.047 0-13.047-2.45-18.002-7.35-4.955-4.898-7.432-10.817-7.432-17.754 0-4.183 2.119-11.176 6.359-20.974 4.238-9.799 8.477-18.717 12.715-26.754 4.241-8.037 6.36-11.946 6.36-11.727.66 1.211 1.568 2.863 2.724 4.955 1.157 2.092 3.194 6.029 6.112 11.809 2.917 5.781 5.477 11.094 7.678 15.935a203.312 203.312 0 0 1 6.111 15.032c1.873 5.173 2.807 9.082 2.807 11.724 0 6.937-2.477 12.856-7.431 17.754" transform="translate(195.64 185.307)"/>
    <path style="fill:#fff;fill-opacity:1;fill-rule:nonzero;stroke:none" d="M0 0c-1.542-1.541-3.386-2.311-5.533-2.311-2.148 0-3.991.77-5.532 2.311s-2.313 3.387-2.313 5.533c0 2.147.772 3.963 2.313 5.45 1.541 1.486 3.384 2.23 5.532 2.23 2.147 0 3.991-.744 5.533-2.23 1.54-1.487 2.312-3.303 2.312-5.45C2.312 3.387 1.54 1.541 0 0m12.551 23.039c-4.954 4.9-10.954 7.35-18.001 7.35-7.047 0-13.047-2.45-18.002-7.35-4.955-4.898-7.432-10.817-7.432-17.754 0-4.183 2.119-11.176 6.359-20.974 4.238-9.799 8.477-18.717 12.715-26.754 4.241-8.037 6.36-11.946 6.36-11.727.66 1.211 1.568 2.863 2.724 4.955 1.157 2.092 3.194 6.029 6.112 11.809 2.917 5.781 5.477 11.094 7.678 15.935a203.312 203.312 0 0 1 6.111 15.032c1.873 5.173 2.807 9.082 2.807 11.724 0 6.937-2.477 12.856-7.431 17.754" transform="translate(195.64 185.307)"/>
    <path style="fill:none;stroke:#2196f3;stroke-width:5;stroke-linecap:butt;stroke-linejoin:miter;stroke-miterlimit:10;stroke-dasharray:none;stroke-opacity:1" d="M0 0c-1.542-1.541-3.386-2.311-5.533-2.311-2.148 0-3.991.77-5.532 2.311s-2.313 3.387-2.313 5.533c0 2.147.772 3.963 2.313 5.45 1.541 1.486 3.384 2.23 5.532 2.23 2.147 0 3.991-.744 5.533-2.23 1.54-1.487 2.312-3.303 2.312-5.45C2.312 3.387 1.54 1.541 0 0Zm12.551 23.039c-4.954 4.9-10.954 7.35-18.001 7.35-7.047 0-13.047-2.45-18.002-7.35-4.955-4.898-7.432-10.817-7.432-17.754 0-4.183 2.119-11.176 6.359-20.974 4.238-9.799 8.477-18.717 12.715-26.754 4.241-8.037 6.36-11.946 6.36-11.727.66 1.211 1.568 2.863 2.724 4.955 1.157 2.092 3.194 6.029 6.112 11.809 2.917 5.781 5.477 11.094 7.678 15.935a203.312 203.312 0 0 1 6.111 15.032c1.873 5.173 2.807 9.082 2.807 11.724 0 6.937-2.477 12.856-7.431 17.754z" transform="translate(195.64 185.307)"/>
  </g>
</svg>
