<svg xmlns="http://www.w3.org/2000/svg" viewBox="0 0 1365.333 1024" height="1024" width="1365.333" xml:space="preserve">
  <defs>
    <clipPath id="a" clipPathUnits="userSpaceOnUse">
      <path d="M264.5 403.049c0-37.069 30.051-67.119 67.119-67.119 37.07 0 67.12 30.05 67.12 67.119s-30.05 67.119-67.12 67.119c-37.068 0-67.119-30.05-67.119-67.119"/>
    </clipPath>
    <clipPath id="b" clipPathUnits="userSpaceOnUse">
      <path d="M0 768h1024V0H0Z"/>
    </clipPath>
    <clipPath id="c" clipPathUnits="userSpaceOnUse">
      <path d="M544 335.209h81.977v136.096H544Z"/>
    </clipPath>
  </defs>
  <g clip-path="url(#a)" transform="matrix(1.33333 0 0 -1.33333 0 1024)">
    <path style="fill:#1092f6;fill-opacity:1;fill-rule:nonzero;stroke:none" d="M0 0c-.766-5.554 1.148-8.427 0-11.107-1.149-2.681-2.49-7.469-1.341-10.724 1.149-3.255 2.872-10.34 4.404-10.533 1.532-.19-1.148 7.66.383 5.171 1.533-2.49 1.533-6.194 4.214-8.745 2.68-2.553 6.319-2.17 9.192-4.659 2.872-2.49 5.744-6.129 8.425-5.746 0 0-.192-1.915-1.532-5.17s-1.532-7.084.192-9.383c1.723-2.298 3.446-5.746 4.979-7.469 1.532-1.723 2.681-10.915 2.297-15.51-.382-4.596 1.724-14.937 6.511-17.236 4.787-2.298 0 1.15-.957 4.022-.958 2.872.739 9.575 3.052 10.533 2.309.958 4.416 4.787 6.139 7.469 1.724 2.68 6.128 3.83 7.469 7.084 1.341 3.255.766 7.085 1.532 8.809.766 1.724 2.873 5.554-1.724 7.852-4.595 2.297-6.51 1.148-6.702 3.255-.192 2.107-1.341 4.404-4.595 5.361-3.256.958-6.129 2.817-9.768 3.227-3.638.412-4.404-2.461-6.319-.929-1.914 1.532-3.446 3.065-4.213 4.98-.765 1.914-3.064.765-2.871 1.914.19 1.149 3.254 4.404-.193 3.256-3.446-1.149-6.51-.766-6.319 2.297.193 3.064 4.405 4.214 6.129 4.597 1.722.383 3.063-1.723 5.17-3.065 2.106-1.34.191 1.915 1.34 4.214 1.149 2.298 5.554 2.106 6.128 5.361.575 3.255-.191 5.937 3.256 6.32 3.446.383 7.084-.191 7.468 1.533.382 1.722-4.022-.576-4.213 1.531-.192 2.106 3.829 4.978 4.978 2.872 1.149-2.106 4.022-2.298 4.405-1.531.383.765 0 2.105-1.341 5.361-1.34 3.256-2.681 2.298-3.829 5.936-1.149 3.639-3.064-.191-4.979 1.724s-4.213 5.937-4.597 2.489c-.382-3.446-.382-5.361-2.105-8.042-1.724-2.682-2.489-.575-4.022 1.149-1.532 1.723-4.979 3.447-3.83 4.978C23.362 4.979 24.511 9 26.234 7.85c1.724-1.149 4.405-1.149 4.022.767-.383 1.914 0 2.681.766 3.638.766.958 3.447 2.682 3.447-.766 0-3.447-.384-4.405 2.298-4.788 2.681-.383 5.744-.574 5.554 1.149-.193 1.724.766 1.341 0 4.214-.767 2.873-3.065 3.063-5.554 4.405-2.489 1.34-3.83 3.446-5.936 2.68s-2.299-1.531-2.49-3.638c-.192-2.107-1.341-2.873-2.107-1.915-.765.957.192 4.022-2.68 2.106-2.873-1.914-4.021-5.171-5.553-2.872-1.533 2.297 2.297 6.319-1.724 4.595-4.022-1.723-6.895-3.637-4.788-4.404 2.107-.766 4.214-2.107 2.107-2.873-2.107-.765-6.32.575-7.852-.957C4.212 7.66 0 0 0 0" transform="translate(272.926 438.38)"/>
    <path style="fill:#1092f6;fill-opacity:1;fill-rule:nonzero;stroke:none" d="M0 0c-.01-2.141.575-3.829 2.49-1.915C4.405 0 5.553 2.298 6.895 1.341c1.34-.958 3.638-.703 4.594-.639.959.064 1.15 2.937 3.831 2.554s1.724.574 4.596 2.107c2.873 1.532 9.001 4.212 2.681 3.446-6.32-.766-6.703.958-11.108-1.914-4.403-2.873-5.36-2.873-6.509-3.639-1.149-.766-2.49 2.298-4.022 0C-.575.958.011 2.182 0 0" transform="translate(295.522 459.061)"/>
    <path style="fill:#1092f6;fill-opacity:1;fill-rule:nonzero;stroke:none" d="M0 0c-2.263-1.956-5.744-4.788-3.064-4.788 2.681 0 3.983 1.404 5.439-.447 1.456-1.85.88-4.723.88-6.063 0-1.341-.766-4.406 1.15-8.235 1.915-3.829 2.106-6.319 4.022-3.829 1.914 2.488 6.51 7.276 8.807 7.658 2.299.384 4.598 1.342 5.746 3.257 1.149 1.915 0 3.773 1.915 5.141 1.915 1.369 1.531 3.093 2.107 5.199C27.575 0 32.747 0 30.448 1.148c-2.298 1.15-6.51 1.916-11.49 1.341C13.979 1.915 4.213 3.638 0 0" transform="translate(318.502 464.998)"/>
    <path style="fill:#1092f6;fill-opacity:1;fill-rule:nonzero;stroke:none" d="M0 0c-1.218-1.987-.575-2.107.766-2.49 1.34-.383-.575-2.68.957-2.872 1.532-.192 4.979-1.149 5.936 0 .959 1.148-1.531.7-3.255 1.978C2.682-2.107.865 1.411 0 0" transform="translate(297.438 405.826)"/>
    <path style="fill:#1092f6;fill-opacity:1;fill-rule:nonzero;stroke:none" d="M0 0c-2.063-1.033-1.149-2.682-3.064-3.831-1.915-1.148-1.149-1.531-1.723-4.213-.576-2.68.191-4.212 1.532-2.106C-1.915-8.044 2.297 1.148 0 0" transform="translate(390.122 374.612)"/>
    <path style="fill:#1092f6;fill-opacity:1;fill-rule:nonzero;stroke:none" d="M0 0c-.575-.575-1.532 2.681-2.106 4.213-.575 1.532-.561 4.195 1.056 5.675C.963 11.734 0 7.469 0 5.17 0 2.873.574.575 0 0m-6.704 5.936c-1.341.766-3.828 0-6.892-.957-3.065-.958-.613 2.131.766 4.213 1.233 1.861.574-.574 3.256-.766 2.681-.192 4.213-3.256 2.87-2.49m-4.402-6.511c-.192-1.531.574-4.02-3.639-3.064-4.213.958-4.213 3.256-5.936 1.533-1.723-1.724-3.83-3.256-6.32-.575C-29.49 0-29.107.766-30.447.958c-.955.135-4.138.846-6.793.074.207.123.427.285.664.5 1.915 1.723 1.533 2.298 3.638 4.213 2.108 1.916 3.639 3.638 5.171 1.916 1.532-1.725 4.788-2.108 3.639-4.023-1.149-1.914-.383-3.063.958-1.914 1.339 1.149 3.254 1.914 1.915 3.446-1.342 1.532-2.682 5.554-.766 2.873 1.914-2.681 2.488-4.022 3.638-5.553C-17.234.958-16.085 0-15.703.958c.383.957-.191 3.063.383 3.446.575.383 0-3.255 1.724-3.446 1.723-.192 2.68 0 2.49-1.533M9.192-8.81c-.574 3.257-4.787 32.747-4.787 32.747s-11.298 7.277-13.213 5.746c-1.916-1.533-5.171-1.302-4.788.21s2.872 1.128-1.341 4.002c-4.213 2.873-4.979 5.362-8.233 1.724-3.256-3.639-4.022-6.703-5.937-7.661-1.916-.957-3.447-4.021-1.34-4.787 2.106-.765 2.297 0 4.021-1.531 1.723-1.533 4.022-1.149 4.405-.193.383.959.766 4.022.957 5.171.191 1.149 2.138 4.979 1.93 1.915-.207-3.064 2.665-3.064.751-5.17-1.915-2.106-.767-3.831-4.596-4.214-3.83-.382-4.022 1.915-6.128.766-2.107-1.148-1.916-1.915-2.682-3.063-.765-1.149-4.787-3.447-4.787-3.447s-3.255 1.149-1.723-.958c1.532-2.106 2.873-4.595 1.532-4.786-1.341-.192-4.98 1.914-4.98-.384s-.573-4.787.958-5.362c1.082-.405 1.784-1.284 2.776-1.161-.769-.332-1.469-.813-2.01-1.52-1.49-1.947-.574-5.362-3.638-6.511-3.063-1.15-3.063-2.489-3.639-4.979-.573-2.489 0-8.808.766-9.383.766-.574 2.107-5.362 5.363-4.979 3.256.383 6.702.531 7.851-.022 1.149-.552 3.064 1.171 3.638-3.233.575-4.404 1.915-4.979 2.681-7.277.766-2.297-.383-7.086 0-9.958s3.064-7.852 3.064-10.341c0-2.489 2.873-3.638 4.404-2.681 1.533.958 4.788 2.873 6.128 5.937 1.341 3.063 1.341 4.595 3.447 8.617 2.106 4.021 1.533 6.894 2.489 9.958.959 3.064 3.262 5.17 6.419 8.617 3.156 3.446 2.588 5.362 0 5.17-2.588-.191-4.315 2.298-5.654 5.363-1.338 3.064-2.87 10.723-1.721 8.234 1.149-2.49 3.446-9.384 5.744-10.533 2.298-1.149 6.512 1.953 7.469 3.083.957 1.131.574 4.386-1.916 5.726C.383-8.617 1.916-7.468 4.405-9c2.489-1.532 5.362-3.064 4.787.19" transform="translate(391.845 415.592)"/>
    <path style="fill:#1092f6;fill-opacity:1;fill-rule:nonzero;stroke:none" d="M0 0c-1.173-.353-2.106-2.681-1.532-3.831.576-1.148-.574.576-2.106-.382-1.532-.957-3.809-3.639-1.713-3.829 2.096-.193 1.713 1.531 3.628.765 1.915-.765 4.021-.575 4.021 1.34C2.298-4.021 1.916.574 0 0" transform="translate(354.886 438.955)"/>
    <path style="fill:#1092f6;fill-opacity:1;fill-rule:nonzero;stroke:none" d="M0 0c-1.154-.165-1.533-3.064.957-3.447 2.49-.383 6.948.575 5.293 2.107C4.596.191 2.681.383 0 0" transform="translate(342.44 447.763)"/>
  </g>
  <g clip-path="url(#b)" transform="matrix(1.33333 0 0 -1.33333 0 1024)">
    <path style="fill:none;stroke:#1092f6;stroke-width:8;stroke-linecap:butt;stroke-linejoin:miter;stroke-miterlimit:10;stroke-dasharray:none;stroke-opacity:1" d="M0 0c0-36.732-29.777-66.509-66.509-66.509-36.733 0-66.51 29.777-66.51 66.509s29.777 66.509 66.51 66.509C-29.777 66.509 0 36.732 0 0Z" transform="translate(398.438 402.186)"/>
  </g>
  <g clip-path="url(#c)" transform="matrix(1.33333 0 0 -1.33333 0 1024)">
    <path style="fill:#1092f6;fill-opacity:1;fill-rule:nonzero;stroke:none" d="M0 0c-2.479-2.479-5.444-3.717-8.896-3.717-3.454 0-6.418 1.238-8.897 3.717-2.478 2.478-3.717 5.443-3.717 8.896 0 3.452 1.239 6.373 3.717 8.763 2.479 2.39 5.443 3.585 8.897 3.585 3.452 0 6.417-1.195 8.896-3.585 2.478-2.39 3.718-5.311 3.718-8.763C3.718 5.443 2.478 2.478 0 0m20.181 37.044C12.215 44.923 2.566 48.862-8.764 48.862c-11.331 0-20.978-3.939-28.945-11.818-7.967-7.877-11.95-17.393-11.95-28.547 0-6.727 3.408-17.969 10.224-33.725 6.815-15.756 13.631-30.096 20.447-43.02 6.816-12.924 10.224-19.208 10.224-18.855 1.062 1.948 2.523 4.604 4.381 7.967 1.86 3.364 5.135 9.694 9.826 18.989 4.692 9.293 8.809 17.834 12.348 25.625a326.918 326.918 0 0 1 9.826 24.166c3.01 8.32 4.514 14.605 4.514 18.853 0 11.154-3.984 20.67-11.95 28.547" transform="translate(593.66 422.443)"/>
    <path style="fill:#1092f6;fill-opacity:1;fill-rule:nonzero;stroke:none" d="M0 0c-2.479-2.479-5.444-3.717-8.896-3.717-3.454 0-6.418 1.238-8.897 3.717-2.478 2.478-3.717 5.443-3.717 8.896 0 3.452 1.239 6.373 3.717 8.763 2.479 2.39 5.443 3.585 8.897 3.585 3.452 0 6.417-1.195 8.896-3.585 2.478-2.39 3.718-5.311 3.718-8.763C3.718 5.443 2.478 2.478 0 0m20.181 37.044C12.215 44.923 2.566 48.862-8.764 48.862c-11.331 0-20.978-3.939-28.945-11.818-7.967-7.877-11.95-17.393-11.95-28.547 0-6.727 3.408-17.969 10.224-33.725 6.815-15.756 13.631-30.096 20.447-43.02 6.816-12.924 10.224-19.208 10.224-18.855 1.062 1.948 2.523 4.604 4.381 7.967 1.86 3.364 5.135 9.694 9.826 18.989 4.692 9.293 8.809 17.834 12.348 25.625a326.918 326.918 0 0 1 9.826 24.166c3.01 8.32 4.514 14.605 4.514 18.853 0 11.154-3.984 20.67-11.95 28.547" transform="translate(593.66 422.443)"/>
  </g>
  <text style="font-variant:normal;font-weight:400;font-stretch:normal;font-size:200px;font-family:&quot;Myriad Pro&quot;;-inkscape-font-specification:MyriadPro-Regular;writing-mode:lr-tb;fill:#1092f6;fill-opacity:1;fill-rule:nonzero;stroke:none" transform="matrix(1.29174 0 0 1.33333 202.666 576.001)"><tspan y="0" x="0">L</tspan></text>
  <text style="font-variant:normal;font-weight:400;font-stretch:normal;font-size:200px;font-family:&quot;Myriad Pro&quot;;-inkscape-font-specification:MyriadPro-Regular;writing-mode:lr-tb;fill:#1092f6;fill-opacity:1;fill-rule:nonzero;stroke:none" transform="translate(553.332 574.668) scale(1.33333)"><tspan y="0" x="0">C</tspan><tspan y="1" x="218 328.60001">ZE</tspan></text>
</svg>
